<svg xmlns="http://www.w3.org/2000/svg"  viewBox="0 0 100 100" width="100px" height="100px" baseProfile="basic"><path fill="#1d5ab5" d="M12,78h-1v-1h1V78z M12,76h-1v-1h1V76z M12,74h-1v-1h1V74z M12,72h-1v-1h1V72z M12,70	h-1v-1h1V70z M12,68h-1v-1h1V68z M12,66h-1v-1h1V66z M12,64h-1v-1h1V64z M12,62h-1v-1h1V62z M12,60h-1v-1h1V60z M12,58h-1v-1h1V58z M12,56h-1v-1h1V56z M12,54h-1v-1h1V54z M12,52h-1v-1h1V52z M12,50h-1v-1h1V50z M12,48h-1v-1h1V48z M12,46h-1v-1h1V46z M12,44h-1v-1	h1V44z M12,42h-1v-1h1V42z M12,40h-1v-1h1V40z M12,38h-1v-1h1V38z M12,36h-1v-1h1V36z M12,34h-1v-1h1V34z M12,32h-1v-1h1V32z M12,30	h-1v-1h1V30z M12,28h-1v-1h1V28z M12,26h-1v-1h1V26z M12,24h-1v-1h1V24z" opacity=".25"/><path fill="#1d5ab5" d="M77,89h-1v-1h1V89z M75,89h-1v-1h1V89z M73,89h-1v-1h1V89z M71,89h-1v-1h1V89z M69,89	h-1v-1h1V89z M67,89h-1v-1h1V89z M65,89h-1v-1h1V89z M63,89h-1v-1h1V89z M61,89h-1v-1h1V89z M59,89h-1v-1h1V89z M57,89h-1v-1h1V89z M55,89h-1v-1h1V89z M53,89h-1v-1h1V89z M51,89h-1v-1h1V89z M49,89h-1v-1h1V89z M47,89h-1v-1h1V89z M45,89h-1v-1h1V89z M43,89h-1v-1	h1V89z M41,89h-1v-1h1V89z M39,89h-1v-1h1V89z M37,89h-1v-1h1V89z M35,89h-1v-1h1V89z M33,89h-1v-1h1V89z M31,89h-1v-1h1V89z M29,89	h-1v-1h1V89z M27,89h-1v-1h1V89z M25,89h-1v-1h1V89z M23,89h-1v-1h1V89z" opacity=".25"/><linearGradient id="WBSVg63JB_fmQCg5iQOsra" x1="-918.924" x2="-866.72" y1="-525" y2="-525" gradientTransform="matrix(0 -1 -1 0 -503.5 -822.5)" gradientUnits="userSpaceOnUse"><stop offset="0" stop-color="#1d5ab5" stop-opacity="0"/><stop offset="1" stop-color="#1d5ab5"/></linearGradient><polygon fill="url(#WBSVg63JB_fmQCg5iQOsra)" points="21,97 21,50 22,50 22,97" opacity=".85"/><linearGradient id="WBSVg63JB_fmQCg5iQOsrb" x1="-918.924" x2="-866.72" y1="-525" y2="-525" gradientTransform="rotate(90 -712.5 209)" gradientUnits="userSpaceOnUse"><stop offset="0" stop-color="#1d5ab5" stop-opacity="0"/><stop offset="1" stop-color="#1d5ab5"/></linearGradient><polygon fill="url(#WBSVg63JB_fmQCg5iQOsrb)" points="21,2 21,49 22,49 22,2" opacity=".85"/><linearGradient id="WBSVg63JB_fmQCg5iQOsrc" x1="-918.924" x2="-866.72" y1="-582" y2="-582" gradientTransform="matrix(0 -1 -1 0 -503.5 -822.5)" gradientUnits="userSpaceOnUse"><stop offset="0" stop-color="#1d5ab5" stop-opacity="0"/><stop offset="1" stop-color="#1d5ab5"/></linearGradient><polygon fill="url(#WBSVg63JB_fmQCg5iQOsrc)" points="78,97 78,50 79,50 79,97" opacity=".85"/><linearGradient id="WBSVg63JB_fmQCg5iQOsrd" x1="-588.924" x2="-536.72" y1="-195" y2="-195" gradientTransform="translate(592.5 273.5)" gradientUnits="userSpaceOnUse"><stop offset="0" stop-color="#1d5ab5" stop-opacity="0"/><stop offset="1" stop-color="#1d5ab5"/></linearGradient><rect width="47" height="1" x="3" y="78" fill="url(#WBSVg63JB_fmQCg5iQOsrd)" opacity=".85"/><linearGradient id="WBSVg63JB_fmQCg5iQOsre" x1="-588.924" x2="-536.72" y1="-252" y2="-252" gradientTransform="translate(592.5 273.5)" gradientUnits="userSpaceOnUse"><stop offset="0" stop-color="#1d5ab5" stop-opacity="0"/><stop offset="1" stop-color="#1d5ab5"/></linearGradient><rect width="47" height="1" x="3" y="21" fill="url(#WBSVg63JB_fmQCg5iQOsre)" opacity=".85"/><linearGradient id="WBSVg63JB_fmQCg5iQOsrf" x1="-1028.924" x2="-976.72" y1="-195" y2="-195" gradientTransform="matrix(-1 0 0 1 -932.5 273.5)" gradientUnits="userSpaceOnUse"><stop offset="0" stop-color="#1d5ab5" stop-opacity="0"/><stop offset="1" stop-color="#1d5ab5"/></linearGradient><polygon fill="url(#WBSVg63JB_fmQCg5iQOsrf)" points="97,79 50,79 50,78 97,78" opacity=".85"/><circle cx="50" cy="50" r="28" fill="#f0f5ff"/><path fill="#1d5ab5" d="M50,79c-15.99,0-29-13.01-29-29s13.01-29,29-29s29,13.01,29,29S65.99,79,50,79z M50,23	c-14.888,0-27,12.112-27,27s12.112,27,27,27s27-12.112,27-27S64.888,23,50,23z"/><path fill="#f0f5ff" d="M51,49V19c7.953,0,15.589,3.163,21.213,8.787S81,41.047,81,49H51z"/><path fill="#1d5ab5" d="M82,50H50V18h1c8.16,0,16.149,3.31,21.92,9.08S82,40.84,82,49V50z M52,48h27.982	c-0.258-7.283-3.314-14.344-8.477-19.506S59.283,20.275,52,20.018V48z"/><path fill="#1d5ab5" d="M79.79,45.65L77.44,48h1.42l1.06-1.06C79.89,46.51,79.85,46.08,79.79,45.65z M79.39,43.23L74.62,48h1.42l3.58-3.58C79.56,44.02,79.49,43.62,79.39,43.23z M78.84,40.96L71.8,48h1.4l5.93-5.93	C79.05,41.7,78.95,41.33,78.84,40.96z M78.13,38.83L68.96,48h1.42l8.12-8.12C78.39,39.53,78.27,39.18,78.13,38.83z M77.3,36.84	L66.14,48h1.41l10.18-10.18C77.6,37.49,77.46,37.16,77.3,36.84z M76.35,34.95L63.3,48h1.42l12.12-12.12	C76.68,35.57,76.52,35.26,76.35,34.95z M75.29,33.19L60.48,48h1.42l13.94-13.94C75.66,33.77,75.48,33.48,75.29,33.19z M74.13,31.52	L57.65,48h1.41l15.66-15.66C74.53,32.06,74.34,31.79,74.13,31.52z M72.86,29.96L54.82,48h1.42l17.27-17.27	C73.31,30.47,73.09,30.21,72.86,29.96z M71.51,28.49L52,48h1.4l18.79-18.79C71.97,28.96,71.74,28.73,71.51,28.49z M70.03,27.13	L52,45.16v1.42L70.78,27.8C70.54,27.56,70.28,27.34,70.03,27.13z M68.47,25.87L52,42.34v1.41l17.26-17.26	C69,26.26,68.74,26.06,68.47,25.87z M66.8,24.7L52,39.5v1.42l15.64-15.64C67.36,25.07,67.08,24.88,66.8,24.7z M65.04,23.64L52,36.68	v1.42l13.94-13.94C65.64,23.98,65.34,23.81,65.04,23.64z M63.15,22.7L52,33.85v1.41l12.1-12.1C63.79,22.99,63.47,22.84,63.15,22.7z M61.16,21.86L52,31.02v1.42l10.17-10.17C61.84,22.12,61.5,21.99,61.16,21.86z M59.04,21.16L52,28.2v1.4l8.11-8.11	C59.76,21.37,59.4,21.26,59.04,21.16z M56.76,20.6L52,25.36v1.42l5.92-5.92C57.54,20.76,57.15,20.67,56.76,20.6z M54.33,20.21	L52,22.54v1.42l3.58-3.58C55.16,20.31,54.75,20.25,54.33,20.21z M52,20.02v1.1l1.04-1.04C52.7,20.05,52.35,20.03,52,20.02z" opacity=".3"/><linearGradient id="WBSVg63JB_fmQCg5iQOsrg" x1="-812.277" x2="-783.88" y1="217" y2="217" gradientTransform="matrix(0 1 1 0 -166.5 812.5)" gradientUnits="userSpaceOnUse"><stop offset="0" stop-color="#1d5ab5" stop-opacity="0"/><stop offset="1" stop-color="#1d5ab5"/></linearGradient><polygon fill="url(#WBSVg63JB_fmQCg5iQOsrg)" points="51,0 51,22 50,22 50,0" opacity=".85"/><linearGradient id="WBSVg63JB_fmQCg5iQOsrh" x1="-812.277" x2="-783.88" y1="217" y2="217" gradientTransform="matrix(-1 0 0 1 -712.5 -167.5)" gradientUnits="userSpaceOnUse"><stop offset="0" stop-color="#1d5ab5" stop-opacity="0"/><stop offset="1" stop-color="#1d5ab5"/></linearGradient><polygon fill="url(#WBSVg63JB_fmQCg5iQOsrh)" points="100,50 78,50 78,49 100,49" opacity=".85"/><linearGradient id="WBSVg63JB_fmQCg5iQOsri" x1="-811.994" x2="-747.454" y1="185.999" y2="185.999" gradientTransform="matrix(-1 0 0 1 -712.5 -167.5)" gradientUnits="userSpaceOnUse"><stop offset="0" stop-color="#1d5ab5" stop-opacity="0"/><stop offset="1" stop-color="#1d5ab5"/></linearGradient><polygon fill="url(#WBSVg63JB_fmQCg5iQOsri)" points="100,18.999 50,18.999 50,17.999 100,17.999" opacity=".85"/><path fill="#1d5ab5" d="M51,76h-1v-1h1V76z M51,74h-1v-1h1V74z M51,72h-1v-1h1V72z M51,70h-1v-1h1V70z M51,68	h-1v-1h1V68z M51,66h-1v-1h1V66z M51,64h-1v-1h1V64z M51,62h-1v-1h1V62z M51,60h-1v-1h1V60z M51,58h-1v-1h1V58z M51,56h-1v-1h1V56z M51,54h-1v-1h1V54z M51,52h-1v-1h1V52z" opacity=".25"/><path fill="#1d5ab5" d="M49,50h-1v-1h1V50z M47,50h-1v-1h1V50z M45,50h-1v-1h1V50z M43,50h-1v-1h1V50z M41,50	h-1v-1h1V50z M39,50h-1v-1h1V50z M37,50h-1v-1h1V50z M35,50h-1v-1h1V50z M33,50h-1v-1h1V50z M31,50h-1v-1h1V50z M29,50h-1v-1h1V50z M27,50h-1v-1h1V50z M25,50h-1v-1h1V50z" opacity=".25"/><path fill="#1d5ab5" d="M90,49h-1v-1h1V49z M90,47h-1v-1h1V47z M90,45h-1v-1h1V45z M90,43h-1v-1h1V43z M90,41	h-1v-1h1V41z M90,39h-1v-1h1V39z M90,37h-1v-1h1V37z M90,35h-1v-1h1V35z M90,33h-1v-1h1V33z M90,31h-1v-1h1V31z M90,29h-1v-1h1V29z M90,27h-1v-1h1V27z M90,25h-1v-1h1V25z M90,23h-1v-1h1V23z M90,21h-1v-1h1V21z" opacity=".25"/><linearGradient id="WBSVg63JB_fmQCg5iQOsrj" x1="50.5" x2="50.5" y1="88" y2="79" gradientUnits="userSpaceOnUse"><stop offset="0" stop-color="#1d5ab5" stop-opacity="0"/><stop offset="1" stop-color="#1d5ab5"/></linearGradient><path fill="url(#WBSVg63JB_fmQCg5iQOsrj)" d="M51,88h-1v-1h1V88z M51,86h-1v-1h1V86z M51,84h-1v-1h1V84z M51,82h-1v-1h1V82z M51,80h-1v-1h1V80z" opacity=".25"/><linearGradient id="WBSVg63JB_fmQCg5iQOsrk" x1="16.5" x2="16.5" y1="54" y2="45" gradientTransform="rotate(90 16.5 49.5)" gradientUnits="userSpaceOnUse"><stop offset="0" stop-color="#1d5ab5" stop-opacity="0"/><stop offset="1" stop-color="#1d5ab5"/></linearGradient><path fill="url(#WBSVg63JB_fmQCg5iQOsrk)" d="M12,50v-1h1v1H12z M14,50v-1h1v1H14z M16,50v-1h1v1H16z M18,50v-1h1v1H18z M20,50v-1h1v1H20z" opacity=".25"/></svg>